<svg xmlns="http://www.w3.org/2000/svg" id="Layer_1" data-name="Layer 1" viewBox="0 0 511.75 511.35"><defs><style>.cls-1{fill:none;stroke:#1B2632;stroke-linecap:round;stroke-linejoin:round;stroke-width:21.29px}@media (prefers-color-scheme: dark){.cls-1{stroke:#FFB162}}</style></defs><g id="Generative_Object" data-name="Generative Object"><path d="m312.43 132.02.22 189.13 77.09 1.36M116.34 130.9c14.12 2.15 67.47-4.31 76.19 3.59 2.5 2.27 3.96 5.44 4.48 8.74-6.76 40.12 11.31 188.9-5.83 216.26-14.15 22.59-41.07 23.85-58.04 3.36-15.4-18.59-6.66-52.7-8.96-75.07" class="cls-1"/><path d="M22.61 179.2c-51.52 160.71 69.88 326.02 239.9 321.41 169.54-4.59 283.42-176.51 221.52-334.42-55.61-141.86-225.07-198.08-355.2-120.6" class="cls-1"/><path d="M255.28 15.49v339.52c7.81 48.49 97.98 13.75 127.74 26.22 12.88 5.4 32.05 34.37 44.82 43.25" class="cls-1"/></g></svg>